<?xml version="1.0" encoding="UTF-8" standalone="no"?>
<!-- Created with Inkscape (http://www.inkscape.org/) -->

<svg
   xmlns:dc="http://purl.org/dc/elements/1.1/"
   xmlns:cc="http://creativecommons.org/ns#"
   xmlns:rdf="http://www.w3.org/1999/02/22-rdf-syntax-ns#"
   xmlns:svg="http://www.w3.org/2000/svg"
   xmlns="http://www.w3.org/2000/svg"
   xmlns:sodipodi="http://sodipodi.sourceforge.net/DTD/sodipodi-0.dtd"
   xmlns:inkscape="http://www.inkscape.org/namespaces/inkscape"
   width="148.06549"
   height="213.29901"
   viewBox="0 0 39.175663 56.435361"
   version="1.1"
   id="svg8"
   inkscape:version="0.92.3 (2405546, 2018-03-11)"
   sodipodi:docname="building-pyramid.svg">
  <defs
     id="defs2" />
  <sodipodi:namedview
     id="base"
     pagecolor="#ffffff"
     bordercolor="#666666"
     borderopacity="1.0"
     inkscape:pageopacity="0"
     inkscape:pageshadow="2"
     inkscape:zoom="1.4839967"
     inkscape:cx="46.323707"
     inkscape:cy="76.673744"
     inkscape:document-units="px"
     inkscape:current-layer="layer1"
     inkscape:document-rotation="0"
     showgrid="false"
     borderlayer="true"
     inkscape:showpageshadow="true"
     units="px"
     inkscape:pagecheckerboard="false"
     showguides="true"
     inkscape:window-width="1366"
     inkscape:window-height="718"
     inkscape:window-x="0"
     inkscape:window-y="0"
     inkscape:window-maximized="1"
     objecttolerance="10"
     guidetolerance="10"
     inkscape:snap-tangential="true"
     inkscape:snap-perpendicular="true"
     fit-margin-top="0"
     fit-margin-left="0"
     fit-margin-right="0"
     fit-margin-bottom="0">
    <inkscape:grid
       type="xygrid"
       id="grid10"
       dotted="false"
       originx="-192.21114"
       originy="-90.844811" />
  </sodipodi:namedview>
  <metadata
     id="metadata5">
    <rdf:RDF>
      <cc:Work
         rdf:about="">
        <dc:format>image/svg+xml</dc:format>
        <dc:type
           rdf:resource="http://purl.org/dc/dcmitype/StillImage" />
        <dc:title />
        <cc:license
           rdf:resource="" />
      </cc:Work>
    </rdf:RDF>
  </metadata>
  <g
     inkscape:label="Layer 1"
     inkscape:groupmode="layer"
     id="layer1"
     transform="translate(-192.21114,-149.71983)">
    <g
       id="g834"
       transform="matrix(0.82336948,0,0,0.82336948,37.410166,31.429194)">
      <path
         inkscape:connector-curvature="0"
         id="path829"
         d="m 204.66482,151.61772 7.37369,-1.42349 -0.19929,4.78293 3.7865,3.2171 8.968,5.86479 3.92885,4.61212 2.44841,11.92888 -3.55873,4.69752 1.879,0.82563 -6.20643,9.33812 -3.18862,1.33809 2.87545,7.23134 -6.8897,1.65125 -1.1388,-6.20643 -4.29895,0.14235 -0.11388,3.5872 -4.726,-0.71174 -0.39858,-0.45552 0.76869,-2.98934 -1.96442,-0.74021 -0.19929,0.48399 -4.10883,-2.24276 1.2582,-2.10371 -1.46958,-1.08709 -0.2919,0.36236 -2.87547,-2.91461 -0.25622,-0.68327 0.99777,-2.45156 v -1.95272 l 1.12735,-1.57024 -1.21409,-5.68389 -1.91631,-1.12047 0.0705,-1.65076 -0.6744,-0.11073 0.0302,-0.52341 -1.88007,-1.22099 0.0285,-0.72598 1.4662,-3.94307 0.41281,0.11387 c 0,0 0.88256,-1.43773 0.86833,-1.5516 -0.0142,-0.11388 -2.14948,-1.65126 -2.14948,-1.65126 l 2.92463,-3.49227 0.33216,0.22144 1.57024,-1.41925 -1.73129,-2.03326 0.0604,-0.8757 4.11684,-2.64726 1.66082,3.33172 3.7353,-1.39862 z"
         style="opacity:1;fill:#fafafa;fill-opacity:1;fill-rule:nonzero;stroke:#ea272b;stroke-width:0.77674198;stroke-linecap:round;stroke-linejoin:miter;stroke-miterlimit:4;stroke-dasharray:none;stroke-opacity:1;paint-order:normal" />
      <g
         id="text842"
         style="font-style:normal;font-variant:normal;font-weight:bold;font-stretch:normal;font-size:9.20428276px;line-height:1.25;font-family:'Open Sans';-inkscape-font-specification:'Open Sans Bold';text-align:start;text-anchor:start;opacity:1;fill:#ea272b;fill-opacity:1;fill-rule:nonzero;stroke:none;stroke-width:0;stroke-linecap:round;stroke-linejoin:miter;stroke-miterlimit:4;stroke-dasharray:none;stroke-opacity:1;paint-order:normal"
         transform="matrix(0.45164888,0,0,0.45164888,150.17349,174.29004)"
         aria-label="PYRAMID">
        <path
           inkscape:connector-curvature="0"
           id="path823"
           style="fill:#ea272b;fill-opacity:1;stroke:none;stroke-width:0;stroke-miterlimit:4;stroke-dasharray:none"
           d="m 117.2617,7.8961279 h 0.45842 q 0.64268,0 0.96177,-0.2516796 0.3191,-0.2561739 0.3191,-0.741556 0,-0.4898764 -0.26966,-0.7235789 -0.26516,-0.2337025 -0.83594,-0.2337025 h -0.63369 z m 3.146,-1.0426727 q 0,1.0606498 -0.66516,1.6224346 -0.66066,0.5617849 -1.8831,0.5617849 H 117.2617 V 11.3747 h -1.39323 V 4.8040641 h 2.09883 q 1.19548,0 1.81569,0.5168421 0.62471,0.5123478 0.62471,1.532549 z" />
        <path
           inkscape:connector-curvature="0"
           id="path825"
           style="fill:#ea272b;fill-opacity:1;stroke:none;stroke-width:0;stroke-miterlimit:4;stroke-dasharray:none"
           d="m 123.702,7.5096199 1.37076,-2.7055558 h 1.50109 L 124.39412,8.817455 V 11.3747 h -1.38424 V 8.8623978 l -2.17972,-4.0583337 h 1.51008 z" />
        <path
           inkscape:connector-curvature="0"
           id="path827"
           style="fill:#ea272b;fill-opacity:1;stroke:none;stroke-width:0;stroke-miterlimit:4;stroke-dasharray:none"
           d="m 128.80301,7.720851 h 0.44943 q 0.66065,0 0.97525,-0.2202196 0.3146,-0.2202197 0.3146,-0.692119 0,-0.4674049 -0.32358,-0.6651532 -0.3191,-0.1977483 -0.99324,-0.1977483 h -0.42246 z m 0,1.1325582 V 11.3747 h -1.39323 V 4.8040641 h 1.91456 q 1.3393,0 1.98198,0.4898764 0.64268,0.4853821 0.64268,1.4786177 0,0.579762 -0.31909,1.0336841 -0.31909,0.4494279 -0.90335,0.7056018 1.48311,2.2156789 1.93254,2.8628559 h -1.54603 l -1.56851,-2.5212908 z" />
        <path
           inkscape:connector-curvature="0"
           id="path830"
           style="fill:#ea272b;fill-opacity:1;stroke:none;stroke-width:0;stroke-miterlimit:4;stroke-dasharray:none"
           d="m 137.50843,11.3747 -0.4764,-1.5640094 h -2.39545 L 134.16019,11.3747 h -1.50109 l 2.31905,-6.5976015 h 1.70333 l 2.32804,6.5976015 z m -0.80897,-2.7325219 q -0.66066,-2.1257938 -0.74605,-2.4044391 -0.0809,-0.2786452 -0.11686,-0.4404393 -0.14831,0.5752677 -0.84941,2.8448784 z" />
        <path
           inkscape:connector-curvature="0"
           id="path832"
           style="fill:#ea272b;fill-opacity:1;stroke:none;stroke-width:0;stroke-miterlimit:4;stroke-dasharray:none"
           d="m 142.61393,11.3747 -1.58199,-5.1549381 h -0.0404 q 0.0854,1.5729976 0.0854,2.0988282 V 11.3747 h -1.24491 V 4.8040641 h 1.89658 l 1.55502,5.0246036 h 0.027 l 1.6494,-5.0246036 h 1.89659 V 11.3747 h -1.29885 V 8.2646587 q 0,-0.2202196 0.004,-0.5078535 0.009,-0.2876338 0.0629,-1.5280547 h -0.0404 L 143.8903,11.3747 Z" />
        <path
           inkscape:connector-curvature="0"
           id="path834"
           style="fill:#ea272b;fill-opacity:1;stroke:none;stroke-width:0;stroke-miterlimit:4;stroke-dasharray:none"
           d="M 148.51491,11.3747 V 4.8040641 h 1.39323 V 11.3747 Z" />
        <path
           inkscape:connector-curvature="0"
           id="path836"
           style="fill:#ea272b;fill-opacity:1;stroke:none;stroke-width:0;stroke-miterlimit:4;stroke-dasharray:none"
           d="m 157.02258,8.026462 q 0,1.6224346 -0.92582,2.485336 -0.92133,0.862902 -2.66511,0.862902 h -1.86063 V 4.8040641 h 2.06288 q 1.60895,0 2.49882,0.8494187 0.88986,0.8494187 0.88986,2.3729792 z m -1.44715,0.035954 q 0,-2.1168053 -1.86962,-2.1168053 h -0.74156 v 4.2785533 h 0.59774 q 2.01344,0 2.01344,-2.161748 z" />
      </g>
    </g>
  </g>
</svg>
