<?xml version="1.0" encoding="UTF-8" standalone="no"?>
<!-- Created with Inkscape (http://www.inkscape.org/) -->

<svg
   xmlns:dc="http://purl.org/dc/elements/1.1/"
   xmlns:cc="http://creativecommons.org/ns#"
   xmlns:rdf="http://www.w3.org/1999/02/22-rdf-syntax-ns#"
   xmlns:svg="http://www.w3.org/2000/svg"
   xmlns="http://www.w3.org/2000/svg"
   xmlns:xlink="http://www.w3.org/1999/xlink"
   xmlns:sodipodi="http://sodipodi.sourceforge.net/DTD/sodipodi-0.dtd"
   xmlns:inkscape="http://www.inkscape.org/namespaces/inkscape"
   width="80.328316"
   height="143.90408"
   viewBox="0 0 21.253534 38.07462"
   version="1.1"
   id="svg8"
   inkscape:version="0.92.3 (2405546, 2018-03-11)"
   sodipodi:docname="building-protik.svg">
  <defs
     id="defs2" />
  <sodipodi:namedview
     id="base"
     pagecolor="#ffffff"
     bordercolor="#666666"
     borderopacity="1.0"
     inkscape:pageopacity="0"
     inkscape:pageshadow="2"
     inkscape:zoom="2.0986883"
     inkscape:cx="145.48364"
     inkscape:cy="49.921024"
     inkscape:document-units="px"
     inkscape:current-layer="layer1"
     inkscape:document-rotation="0"
     showgrid="false"
     borderlayer="true"
     inkscape:showpageshadow="true"
     units="px"
     inkscape:pagecheckerboard="false"
     showguides="true"
     inkscape:window-width="1366"
     inkscape:window-height="718"
     inkscape:window-x="0"
     inkscape:window-y="0"
     inkscape:window-maximized="1"
     objecttolerance="10"
     guidetolerance="10"
     inkscape:snap-tangential="true"
     inkscape:snap-perpendicular="true"
     fit-margin-top="0"
     fit-margin-left="0"
     fit-margin-right="0"
     fit-margin-bottom="0">
    <inkscape:grid
       type="xygrid"
       id="grid10"
       dotted="false"
       originx="-207.22359"
       originy="-128.71767" />
  </sodipodi:namedview>
  <metadata
     id="metadata5">
    <rdf:RDF>
      <cc:Work
         rdf:about="">
        <dc:format>image/svg+xml</dc:format>
        <dc:type
           rdf:resource="http://purl.org/dc/dcmitype/StillImage" />
        <dc:title></dc:title>
        <cc:license
           rdf:resource="" />
      </cc:Work>
    </rdf:RDF>
  </metadata>
  <g
     inkscape:label="Layer 1"
     inkscape:groupmode="layer"
     id="layer1"
     transform="translate(-207.22359,-130.20771)">
    <a
       transform="matrix(0.6001078,0,0,0.6001078,44.718202,11.337758)"
       id="a4546"
       xlink:href="/#/map/Protik"
       target="_parent">
      <g
         id="g921"
         transform="matrix(0.62314773,0,0,0.62314773,143.74732,143.62253)">
        <path
           style="opacity:1;fill:#fafafa;fill-opacity:1;fill-rule:nonzero;stroke:#ea272b;stroke-width:1.71979165;stroke-linecap:round;stroke-linejoin:miter;stroke-miterlimit:4;stroke-dasharray:none;stroke-opacity:1;paint-order:normal"
           d="m 209.78183,103.07158 14.75029,-3.05721 0.91529,3.41593 5.95514,-1.59567 -0.7888,-2.943846 8.39445,-1.7257 15.80105,76.575996 -7.91167,1.67148 -0.75774,-3.34296 -6.17332,1.35947 0.62402,2.96409 -15.11289,3.04581 -9.31619,-45.32754 z"
           id="path855"
           inkscape:connector-curvature="0"
           sodipodi:nodetypes="cccccccccccccc" />
        <g
           id="text859"
           style="font-style:normal;font-variant:normal;font-weight:bold;font-stretch:normal;font-size:6.43117142px;line-height:1.25;font-family:'Open Sans';-inkscape-font-specification:'Open Sans Bold';text-align:start;text-anchor:start;opacity:1;fill:#ea272b;fill-opacity:1;fill-rule:nonzero;stroke:none;stroke-width:0;stroke-linecap:round;stroke-linejoin:miter;stroke-miterlimit:4;stroke-dasharray:none;stroke-opacity:1;paint-order:normal"
           aria-label="PROTIK">
          <path
             inkscape:connector-curvature="0"
             id="path839"
             style="fill:#ea272b;fill-opacity:1;stroke:none;stroke-width:0;stroke-miterlimit:4;stroke-dasharray:none"
             d="m 221.78207,138.17015 h 0.32031 q 0.44905,0 0.672,-0.17586 0.22296,-0.17899 0.22296,-0.51813 0,-0.34229 -0.18841,-0.50558 -0.18528,-0.16329 -0.58409,-0.16329 h -0.44277 z m 2.19816,-0.72853 q 0,0.74109 -0.46475,1.13362 -0.46162,0.39252 -1.31576,0.39252 h -0.41765 v 1.63292 h -0.97346 v -4.591 h 1.46648 q 0.8353,0 1.26865,0.36112 0.43649,0.35799 0.43649,1.07082 z" />
          <path
             inkscape:connector-curvature="0"
             id="path841"
             style="fill:#ea272b;fill-opacity:1;stroke:none;stroke-width:0;stroke-miterlimit:4;stroke-dasharray:none"
             d="m 225.82668,138.04768 h 0.31402 q 0.46161,0 0.68143,-0.15387 0.21981,-0.15387 0.21981,-0.4836 0,-0.32658 -0.22609,-0.46475 -0.22296,-0.13817 -0.69399,-0.13817 h -0.29518 z m 0,0.79133 v 1.76167 h -0.97347 v -4.591 h 1.33773 q 0.93579,0 1.38484,0.34228 0.44905,0.33914 0.44905,1.03313 0,0.40509 -0.22295,0.72225 -0.22296,0.31402 -0.63119,0.49302 1.03627,1.54813 1.3503,2.00032 h -1.08024 l -1.09594,-1.76167 z" />
          <path
             inkscape:connector-curvature="0"
             id="path843"
             style="fill:#ea272b;fill-opacity:1;stroke:none;stroke-width:0;stroke-miterlimit:4;stroke-dasharray:none"
             d="m 233.26586,138.2989 q 0,1.1399 -0.56524,1.75224 -0.56524,0.61234 -1.62035,0.61234 -1.05512,0 -1.62036,-0.61234 -0.56524,-0.61234 -0.56524,-1.75852 0,-1.14618 0.56524,-1.74911 0.56838,-0.60606 1.62664,-0.60606 1.05825,0 1.61721,0.6092 0.5621,0.60921 0.5621,1.75225 z m -3.35062,0 q 0,0.76935 0.29204,1.15874 0.29205,0.38938 0.87299,0.38938 1.16502,0 1.16502,-1.54812 0,-1.55127 -1.15874,-1.55127 -0.58094,0 -0.87612,0.39252 -0.29519,0.38939 -0.29519,1.15875 z" />
          <path
             inkscape:connector-curvature="0"
             id="path845"
             style="fill:#ea272b;fill-opacity:1;stroke:none;stroke-width:0;stroke-miterlimit:4;stroke-dasharray:none"
             d="m 235.99471,140.60068 h -0.97347 v -3.78083 h -1.24666 v -0.81017 h 3.4668 v 0.81017 h -1.24667 z" />
          <path
             inkscape:connector-curvature="0"
             id="path847"
             style="fill:#ea272b;fill-opacity:1;stroke:none;stroke-width:0;stroke-miterlimit:4;stroke-dasharray:none"
             d="m 237.95421,140.60068 v -4.591 h 0.97347 v 4.591 z" />
          <path
             inkscape:connector-curvature="0"
             id="path849"
             style="fill:#ea272b;fill-opacity:1;stroke:none;stroke-width:0;stroke-miterlimit:4;stroke-dasharray:none"
             d="m 243.78246,140.60068 h -1.10536 l -1.20271,-1.93438 -0.41136,0.29518 v 1.6392 h -0.97347 v -4.591 h 0.97347 v 2.1008 l 0.3831,-0.54012 1.24353,-1.56068 h 1.08024 l -1.60152,2.03172 z" />
        </g>
      </g>
    </a>
  </g>
</svg>
